<svg width="56" height="24" viewBox="0 0 56 24" fill="none" xmlns="http://www.w3.org/2000/svg">
<path d="M9.82456 4.46683V20H6.28427L4.18311 12.9386V20H0.805921V4.46683H4.18311L6.44737 11.4611V4.46683H9.82456ZM11.4556 4.46683H18.1908V7.57538H15.4948V10.5208H18.0181V13.4759H15.4948V16.8914H18.4594V20H11.4556V4.46683ZM27.7659 4.46683V7.57538H25.3673V20H21.3281V7.57538H18.9391V4.46683H27.7659ZM37.7056 4.46683V20H34.1653L32.0641 12.9386V20H28.687V4.46683H32.0641L34.3284 11.4611V4.46683H37.7056ZM39.3366 4.46683H46.0718V7.57538H43.3758V10.5208H45.8991V13.4759H43.3758V16.8914H46.3405V20H39.3366V4.46683ZM55.6469 4.46683V7.57538H53.2484V20H49.2092V7.57538H46.8202V4.46683H55.6469Z" fill="url(#paint0_linear_15_170)"/>
<defs>
<linearGradient id="paint0_linear_15_170" x1="0" y1="0" x2="70.2707" y2="33.4405" gradientUnits="userSpaceOnUse">
<stop stop-color="#FF0021"/>
<stop offset="1" stop-color="#AA011A"/>
</linearGradient>
</defs>
</svg>
